<svg width="703" height="121" viewBox="0 0 703 121" fill="none" xmlns="http://www.w3.org/2000/svg">
<path d="M47.64 39.84C47.64 34.2933 48.84 29.36 51.24 25.04C53.64 20.6667 56.9733 17.28 61.24 14.88C65.56 12.4267 70.44 11.2 75.88 11.2C82.5467 11.2 88.2533 12.96 93 16.48C97.7467 20 100.92 24.8 102.52 30.88H87.48C86.36 28.5333 84.76 26.7467 82.68 25.52C80.6533 24.2933 78.3333 23.68 75.72 23.68C71.5067 23.68 68.0933 25.1467 65.48 28.08C62.8667 31.0133 61.56 34.9333 61.56 39.84C61.56 44.7467 62.8667 48.6667 65.48 51.6C68.0933 54.5333 71.5067 56 75.72 56C78.3333 56 80.6533 55.3867 82.68 54.16C84.76 52.9333 86.36 51.1467 87.48 48.8H102.52C100.92 54.88 97.7467 59.68 93 63.2C88.2533 66.6667 82.5467 68.4 75.88 68.4C70.44 68.4 65.56 67.2 61.24 64.8C56.9733 62.3467 53.64 58.96 51.24 54.64C48.84 50.32 47.64 45.3867 47.64 39.84ZM131.218 68.64C126.844 68.64 122.898 67.7067 119.378 65.84C115.911 63.9733 113.164 61.3067 111.138 57.84C109.164 54.3733 108.178 50.32 108.178 45.68C108.178 41.0933 109.191 37.0667 111.217 33.6C113.244 30.08 116.018 27.3867 119.538 25.52C123.058 23.6533 127.004 22.72 131.378 22.72C135.751 22.72 139.698 23.6533 143.218 25.52C146.738 27.3867 149.511 30.08 151.538 33.6C153.564 37.0667 154.578 41.0933 154.578 45.68C154.578 50.2667 153.538 54.32 151.458 57.84C149.431 61.3067 146.631 63.9733 143.058 65.84C139.538 67.7067 135.591 68.64 131.218 68.64ZM131.218 56.8C133.831 56.8 136.044 55.84 137.858 53.92C139.724 52 140.658 49.2533 140.658 45.68C140.658 42.1067 139.751 39.36 137.938 37.44C136.178 35.52 133.991 34.56 131.378 34.56C128.711 34.56 126.498 35.52 124.738 37.44C122.978 39.3067 122.098 42.0533 122.098 45.68C122.098 49.2533 122.951 52 124.658 53.92C126.418 55.84 128.604 56.8 131.218 56.8ZM175.515 8.8V68H161.835V8.8H175.515ZM199.109 8.8V68H185.429V8.8H199.109ZM206.303 45.6C206.303 41.0133 207.156 36.9867 208.863 33.52C210.623 30.0533 212.996 27.3867 215.983 25.52C218.969 23.6533 222.303 22.72 225.983 22.72C229.129 22.72 231.876 23.36 234.223 24.64C236.623 25.92 238.463 27.6 239.743 29.68V23.36H253.423V68H239.743V61.68C238.409 63.76 236.543 65.44 234.143 66.72C231.796 68 229.049 68.64 225.903 68.64C222.276 68.64 218.969 67.7067 215.983 65.84C212.996 63.92 210.623 61.2267 208.863 57.76C207.156 54.24 206.303 50.1867 206.303 45.6ZM239.743 45.68C239.743 42.2667 238.783 39.5733 236.863 37.6C234.996 35.6267 232.703 34.64 229.983 34.64C227.263 34.64 224.943 35.6267 223.023 37.6C221.156 39.52 220.223 42.1867 220.223 45.6C220.223 49.0133 221.156 51.7333 223.023 53.76C224.943 55.7333 227.263 56.72 229.983 56.72C232.703 56.72 234.996 55.7333 236.863 53.76C238.783 51.7867 239.743 49.0933 239.743 45.68ZM276.999 29.68C278.279 27.6 280.119 25.92 282.519 24.64C284.919 23.36 287.666 22.72 290.759 22.72C294.439 22.72 297.773 23.6533 300.759 25.52C303.746 27.3867 306.093 30.0533 307.799 33.52C309.559 36.9867 310.439 41.0133 310.439 45.6C310.439 50.1867 309.559 54.24 307.799 57.76C306.093 61.2267 303.746 63.92 300.759 65.84C297.773 67.7067 294.439 68.64 290.759 68.64C287.613 68.64 284.866 68.0267 282.519 66.8C280.173 65.52 278.333 63.84 276.999 61.76V68H263.319V8.8H276.999V29.68ZM296.519 45.6C296.519 42.1867 295.559 39.52 293.639 37.6C291.773 35.6267 289.453 34.64 286.679 34.64C283.959 34.64 281.639 35.6267 279.719 37.6C277.853 39.5733 276.919 42.2667 276.919 45.68C276.919 49.0933 277.853 51.7867 279.719 53.76C281.639 55.7333 283.959 56.72 286.679 56.72C289.399 56.72 291.719 55.7333 293.639 53.76C295.559 51.7333 296.519 49.0133 296.519 45.6ZM337.936 68.64C333.563 68.64 329.616 67.7067 326.096 65.84C322.63 63.9733 319.883 61.3067 317.856 57.84C315.883 54.3733 314.896 50.32 314.896 45.68C314.896 41.0933 315.91 37.0667 317.936 33.6C319.963 30.08 322.736 27.3867 326.256 25.52C329.776 23.6533 333.723 22.72 338.096 22.72C342.47 22.72 346.416 23.6533 349.936 25.52C353.456 27.3867 356.23 30.08 358.256 33.6C360.283 37.0667 361.296 41.0933 361.296 45.68C361.296 50.2667 360.256 54.32 358.176 57.84C356.15 61.3067 353.35 63.9733 349.776 65.84C346.256 67.7067 342.31 68.64 337.936 68.64ZM337.936 56.8C340.55 56.8 342.763 55.84 344.576 53.92C346.443 52 347.376 49.2533 347.376 45.68C347.376 42.1067 346.47 39.36 344.656 37.44C342.896 35.52 340.71 34.56 338.096 34.56C335.43 34.56 333.216 35.52 331.456 37.44C329.696 39.3067 328.816 42.0533 328.816 45.68C328.816 49.2533 329.67 52 331.376 53.92C333.136 55.84 335.323 56.8 337.936 56.8ZM382.234 30.8C383.834 28.3467 385.834 26.4267 388.234 25.04C390.634 23.6 393.3 22.88 396.234 22.88V37.36H392.474C389.06 37.36 386.5 38.1067 384.794 39.6C383.087 41.04 382.234 43.6 382.234 47.28V68H368.554V23.36H382.234V30.8ZM400.053 45.6C400.053 41.0133 400.906 36.9867 402.613 33.52C404.373 30.0533 406.746 27.3867 409.733 25.52C412.719 23.6533 416.053 22.72 419.733 22.72C422.879 22.72 425.626 23.36 427.973 24.64C430.373 25.92 432.213 27.6 433.493 29.68V23.36H447.173V68H433.493V61.68C432.159 63.76 430.293 65.44 427.893 66.72C425.546 68 422.799 68.64 419.653 68.64C416.026 68.64 412.719 67.7067 409.733 65.84C406.746 63.92 404.373 61.2267 402.613 57.76C400.906 54.24 400.053 50.1867 400.053 45.6ZM433.493 45.68C433.493 42.2667 432.533 39.5733 430.613 37.6C428.746 35.6267 426.453 34.64 423.733 34.64C421.013 34.64 418.693 35.6267 416.773 37.6C414.906 39.52 413.973 42.1867 413.973 45.6C413.973 49.0133 414.906 51.7333 416.773 53.76C418.693 55.7333 421.013 56.72 423.733 56.72C426.453 56.72 428.746 55.7333 430.613 53.76C432.533 51.7867 433.493 49.0933 433.493 45.68ZM481.949 56.4V68H474.989C470.029 68 466.163 66.8 463.389 64.4C460.616 61.9467 459.229 57.9733 459.229 52.48V34.72H453.789V23.36H459.229V12.48H472.909V23.36H481.869V34.72H472.909V52.64C472.909 53.9733 473.229 54.9333 473.869 55.52C474.509 56.1067 475.576 56.4 477.069 56.4H481.949ZM496.449 18.72C494.049 18.72 492.076 18.0267 490.529 16.64C489.036 15.2 488.289 13.44 488.289 11.36C488.289 9.22667 489.036 7.46666 490.529 6.08C492.076 4.64 494.049 3.92 496.449 3.92C498.796 3.92 500.716 4.64 502.209 6.08C503.756 7.46666 504.529 9.22667 504.529 11.36C504.529 13.44 503.756 15.2 502.209 16.64C500.716 18.0267 498.796 18.72 496.449 18.72ZM503.249 23.36V68H489.569V23.36H503.249ZM533.483 68.64C529.11 68.64 525.163 67.7067 521.643 65.84C518.176 63.9733 515.43 61.3067 513.403 57.84C511.43 54.3733 510.443 50.32 510.443 45.68C510.443 41.0933 511.456 37.0667 513.483 33.6C515.51 30.08 518.283 27.3867 521.803 25.52C525.323 23.6533 529.27 22.72 533.643 22.72C538.016 22.72 541.963 23.6533 545.483 25.52C549.003 27.3867 551.776 30.08 553.803 33.6C555.83 37.0667 556.843 41.0933 556.843 45.68C556.843 50.2667 555.803 54.32 553.723 57.84C551.696 61.3067 548.896 63.9733 545.323 65.84C541.803 67.7067 537.856 68.64 533.483 68.64ZM533.483 56.8C536.096 56.8 538.31 55.84 540.123 53.92C541.99 52 542.923 49.2533 542.923 45.68C542.923 42.1067 542.016 39.36 540.203 37.44C538.443 35.52 536.256 34.56 533.643 34.56C530.976 34.56 528.763 35.52 527.003 37.44C525.243 39.3067 524.363 42.0533 524.363 45.68C524.363 49.2533 525.216 52 526.923 53.92C528.683 55.84 530.87 56.8 533.483 56.8ZM591.301 22.88C596.527 22.88 600.687 24.5867 603.781 28C606.927 31.36 608.501 36 608.501 41.92V68H594.901V43.76C594.901 40.7733 594.127 38.4533 592.581 36.8C591.034 35.1467 588.954 34.32 586.341 34.32C583.727 34.32 581.647 35.1467 580.101 36.8C578.554 38.4533 577.781 40.7733 577.781 43.76V68H564.101V23.36H577.781V29.28C579.167 27.3067 581.034 25.76 583.381 24.64C585.727 23.4667 588.367 22.88 591.301 22.88ZM634.407 8.72C640.114 8.72 644.674 10.2133 648.087 13.2C651.554 16.1867 653.287 20.4 653.287 25.84C653.287 30.8533 651.634 34.7733 648.327 37.6C645.074 40.3733 640.754 41.7867 635.367 41.84L634.967 47.84H622.967L622.567 32.96H627.367C631.474 32.96 634.594 32.4533 636.727 31.44C638.914 30.4267 640.007 28.5867 640.007 25.92C640.007 24.0533 639.5 22.5867 638.487 21.52C637.474 20.4533 636.06 19.92 634.247 19.92C632.327 19.92 630.834 20.48 629.767 21.6C628.7 22.6667 628.167 24.1333 628.167 26H615.287C615.18 22.7467 615.847 19.8133 617.287 17.2C618.78 14.5867 620.967 12.5333 623.847 11.04C626.78 9.49333 630.3 8.72 634.407 8.72ZM629.127 68.64C626.727 68.64 624.754 67.9467 623.207 66.56C621.714 65.12 620.967 63.36 620.967 61.28C620.967 59.1467 621.714 57.36 623.207 55.92C624.754 54.48 626.727 53.76 629.127 53.76C631.474 53.76 633.394 54.48 634.887 55.92C636.434 57.36 637.207 59.1467 637.207 61.28C637.207 63.36 636.434 65.12 634.887 66.56C633.394 67.9467 631.474 68.64 629.127 68.64Z" fill="white"/>
<path d="M689 107C351.5 84.5 14 107 14 107" stroke="url(#paint0_linear_389_526)" stroke-width="28" stroke-linecap="round"/>
<defs>
<linearGradient id="paint0_linear_389_526" x1="1.73789" y1="113.359" x2="685.496" y2="113.359" gradientUnits="userSpaceOnUse">
<stop stop-color="#7864FF"/>
<stop offset="1" stop-color="#32A6FF"/>
</linearGradient>
</defs>
</svg>
