<svg width="606" height="122" viewBox="0 0 606 122" fill="none" xmlns="http://www.w3.org/2000/svg">
<path d="M128.24 11.84L113.6 68H97.04L88.08 31.04L78.8 68H62.24L48 11.84H62.64L70.72 52.72L80.72 11.84H95.76L105.36 52.72L113.52 11.84H128.24ZM162.541 22.88C167.661 22.88 171.767 24.5867 174.861 28C177.954 31.36 179.501 36 179.501 41.92V68H165.901V43.76C165.901 40.7733 165.127 38.4533 163.581 36.8C162.034 35.1467 159.954 34.32 157.341 34.32C154.727 34.32 152.647 35.1467 151.101 36.8C149.554 38.4533 148.781 40.7733 148.781 43.76V68H135.101V8.8H148.781V29.36C150.167 27.3867 152.061 25.8133 154.461 24.64C156.861 23.4667 159.554 22.88 162.541 22.88ZM186.287 45.6C186.287 41.0133 187.14 36.9867 188.847 33.52C190.607 30.0533 192.98 27.3867 195.967 25.52C198.954 23.6533 202.287 22.72 205.967 22.72C209.114 22.72 211.86 23.36 214.207 24.64C216.607 25.92 218.447 27.6 219.727 29.68V23.36H233.407V68H219.727V61.68C218.394 63.76 216.527 65.44 214.127 66.72C211.78 68 209.034 68.64 205.887 68.64C202.26 68.64 198.954 67.7067 195.967 65.84C192.98 63.92 190.607 61.2267 188.847 57.76C187.14 54.24 186.287 50.1867 186.287 45.6ZM219.727 45.68C219.727 42.2667 218.767 39.5733 216.847 37.6C214.98 35.6267 212.687 34.64 209.967 34.64C207.247 34.64 204.927 35.6267 203.007 37.6C201.14 39.52 200.207 42.1867 200.207 45.6C200.207 49.0133 201.14 51.7333 203.007 53.76C204.927 55.7333 207.247 56.72 209.967 56.72C212.687 56.72 214.98 55.7333 216.847 53.76C218.767 51.7867 219.727 49.0933 219.727 45.68ZM268.184 56.4V68H261.224C256.264 68 252.397 66.8 249.624 64.4C246.85 61.9467 245.464 57.9733 245.464 52.48V34.72H240.024V23.36H245.464V12.48H259.144V23.36H268.104V34.72H259.144V52.64C259.144 53.9733 259.464 54.9333 260.104 55.52C260.744 56.1067 261.81 56.4 263.304 56.4H268.184ZM299.637 18.72C297.237 18.72 295.264 18.0267 293.717 16.64C292.224 15.2 291.477 13.44 291.477 11.36C291.477 9.22667 292.224 7.46666 293.717 6.08C295.264 4.64 297.237 3.92 299.637 3.92C301.984 3.92 303.904 4.64 305.397 6.08C306.944 7.46666 307.717 9.22667 307.717 11.36C307.717 13.44 306.944 15.2 305.397 16.64C303.904 18.0267 301.984 18.72 299.637 18.72ZM306.437 23.36V68H292.757V23.36H306.437ZM334.511 68.64C330.617 68.64 327.151 67.9733 324.111 66.64C321.071 65.3067 318.671 63.4933 316.911 61.2C315.151 58.8533 314.164 56.24 313.951 53.36H327.471C327.631 54.9067 328.351 56.16 329.631 57.12C330.911 58.08 332.484 58.56 334.351 58.56C336.057 58.56 337.364 58.24 338.271 57.6C339.231 56.9067 339.711 56.0267 339.711 54.96C339.711 53.68 339.044 52.7467 337.711 52.16C336.377 51.52 334.217 50.8267 331.231 50.08C328.031 49.3333 325.364 48.56 323.231 47.76C321.097 46.9067 319.257 45.6 317.711 43.84C316.164 42.0267 315.391 39.6 315.391 36.56C315.391 34 316.084 31.68 317.471 29.6C318.911 27.4667 320.991 25.7867 323.711 24.56C326.484 23.3333 329.764 22.72 333.551 22.72C339.151 22.72 343.551 24.1067 346.751 26.88C350.004 29.6533 351.871 33.3333 352.351 37.92H339.711C339.497 36.3733 338.804 35.1467 337.631 34.24C336.511 33.3333 335.017 32.88 333.151 32.88C331.551 32.88 330.324 33.2 329.471 33.84C328.617 34.4267 328.191 35.2533 328.191 36.32C328.191 37.6 328.857 38.56 330.191 39.2C331.577 39.84 333.711 40.48 336.591 41.12C339.897 41.9733 342.591 42.8267 344.671 43.68C346.751 44.48 348.564 45.8133 350.111 47.68C351.711 49.4933 352.537 51.9467 352.591 55.04C352.591 57.6533 351.844 60 350.351 62.08C348.911 64.1067 346.804 65.7067 344.031 66.88C341.311 68.0533 338.137 68.64 334.511 68.64ZM414.473 11.84V22.8H391.593V34.64H408.713V45.28H391.593V68H377.913V11.84H414.473ZM439.823 68.64C435.93 68.64 432.463 67.9733 429.423 66.64C426.383 65.3067 423.983 63.4933 422.223 61.2C420.463 58.8533 419.476 56.24 419.263 53.36H432.783C432.943 54.9067 433.663 56.16 434.943 57.12C436.223 58.08 437.796 58.56 439.663 58.56C441.37 58.56 442.676 58.24 443.583 57.6C444.543 56.9067 445.023 56.0267 445.023 54.96C445.023 53.68 444.356 52.7467 443.023 52.16C441.69 51.52 439.53 50.8267 436.543 50.08C433.343 49.3333 430.676 48.56 428.543 47.76C426.41 46.9067 424.57 45.6 423.023 43.84C421.476 42.0267 420.703 39.6 420.703 36.56C420.703 34 421.396 31.68 422.783 29.6C424.223 27.4667 426.303 25.7867 429.023 24.56C431.796 23.3333 435.076 22.72 438.863 22.72C444.463 22.72 448.863 24.1067 452.063 26.88C455.316 29.6533 457.183 33.3333 457.663 37.92H445.023C444.81 36.3733 444.116 35.1467 442.943 34.24C441.823 33.3333 440.33 32.88 438.463 32.88C436.863 32.88 435.636 33.2 434.783 33.84C433.93 34.4267 433.503 35.2533 433.503 36.32C433.503 37.6 434.17 38.56 435.503 39.2C436.89 39.84 439.023 40.48 441.903 41.12C445.21 41.9733 447.903 42.8267 449.983 43.68C452.063 44.48 453.876 45.8133 455.423 47.68C457.023 49.4933 457.85 51.9467 457.903 55.04C457.903 57.6533 457.156 60 455.663 62.08C454.223 64.1067 452.116 65.7067 449.343 66.88C446.623 68.0533 443.45 68.64 439.823 68.64ZM479.953 29.68C481.286 27.6 483.126 25.92 485.473 24.64C487.819 23.36 490.566 22.72 493.713 22.72C497.393 22.72 500.726 23.6533 503.713 25.52C506.699 27.3867 509.046 30.0533 510.753 33.52C512.513 36.9867 513.393 41.0133 513.393 45.6C513.393 50.1867 512.513 54.24 510.753 57.76C509.046 61.2267 506.699 63.92 503.713 65.84C500.726 67.7067 497.393 68.64 493.713 68.64C490.619 68.64 487.873 68 485.473 66.72C483.126 65.44 481.286 63.7867 479.953 61.76V89.28H466.273V23.36H479.953V29.68ZM499.473 45.6C499.473 42.1867 498.513 39.52 496.593 37.6C494.726 35.6267 492.406 34.64 489.633 34.64C486.913 34.64 484.593 35.6267 482.673 37.6C480.806 39.5733 479.873 42.2667 479.873 45.68C479.873 49.0933 480.806 51.7867 482.673 53.76C484.593 55.7333 486.913 56.72 489.633 56.72C492.353 56.72 494.673 55.7333 496.593 53.76C498.513 51.7333 499.473 49.0133 499.473 45.6ZM536.969 8.72C542.676 8.72 547.236 10.2133 550.649 13.2C554.116 16.1867 555.849 20.4 555.849 25.84C555.849 30.8533 554.196 34.7733 550.889 37.6C547.636 40.3733 543.316 41.7867 537.929 41.84L537.529 47.84H525.529L525.129 32.96H529.929C534.036 32.96 537.156 32.4533 539.289 31.44C541.476 30.4267 542.569 28.5867 542.569 25.92C542.569 24.0533 542.063 22.5867 541.049 21.52C540.036 20.4533 538.623 19.92 536.809 19.92C534.889 19.92 533.396 20.48 532.329 21.6C531.263 22.6667 530.729 24.1333 530.729 26H517.849C517.743 22.7467 518.409 19.8133 519.849 17.2C521.343 14.5867 523.529 12.5333 526.409 11.04C529.343 9.49333 532.863 8.72 536.969 8.72ZM531.689 68.64C529.289 68.64 527.316 67.9467 525.769 66.56C524.276 65.12 523.529 63.36 523.529 61.28C523.529 59.1467 524.276 57.36 525.769 55.92C527.316 54.48 529.289 53.76 531.689 53.76C534.036 53.76 535.956 54.48 537.449 55.92C538.996 57.36 539.769 59.1467 539.769 61.28C539.769 63.36 538.996 65.12 537.449 66.56C535.956 67.9467 534.036 68.64 531.689 68.64Z" fill="#F2F2F2"/>
<path d="M592 107.222C303 84.2221 14 107.222 14 107.222" stroke="url(#paint0_linear_351_534)" stroke-width="28" stroke-linecap="round"/>
<defs>
<linearGradient id="paint0_linear_351_534" x1="3.5" y1="113.722" x2="589" y2="113.722" gradientUnits="userSpaceOnUse">
<stop stop-color="#7864FF"/>
<stop offset="1" stop-color="#32A6FF"/>
</linearGradient>
</defs>
</svg>
