<svg width="161" height="66" viewBox="0 0 161 66" fill="none" xmlns="http://www.w3.org/2000/svg">
<g style="mix-blend-mode:multiply" opacity="0.55">
<path d="M22.9816 61.2223L9.01843 20.7777L8.0545 21.1105C7.02148 21.4671 6.05356 22.0069 5.34757 22.841C3.00355 25.6117 -1.77693 33.2126 2.51848 45.6544C3.79203 49.3433 3.89079 54.7372 3.65282 59.3252C3.44276 63.3603 7.38008 66.6086 11.2004 65.2896L22.9816 61.2223ZM95.5562 23.139L98.5625 44.3202L95.5562 23.139ZM160.426 25.9297H117.639V26.9495C117.639 28.0424 117.834 29.1334 118.392 30.073C120.246 33.1928 125.87 40.1921 139.033 40.1921C142.935 40.1921 148.066 41.859 152.325 43.5812C156.071 45.0966 160.426 42.4348 160.426 38.3933V25.9297ZM22.9816 61.2223C47.434 52.7803 72.1119 48.0744 98.5625 44.3202L92.5499 1.95771C64.9541 5.87445 37.2073 11.0457 9.01843 20.7777L22.9816 61.2223ZM98.5625 44.3202C98.5096 44.3277 99.1148 44.2524 100.592 44.1311C101.92 44.0221 103.649 43.9002 105.643 43.7871C109.657 43.5594 114.497 43.3815 119.086 43.3942C123.921 43.4075 127.525 43.6354 129.499 43.9564C130.699 44.1516 129.842 44.1569 128.145 43.3462C127.268 42.9274 124.993 41.7452 122.726 39.2365C120.157 36.3933 117.639 31.811 117.639 25.9297H160.426C160.426 11.9415 149.159 5.96619 146.589 4.73864C142.765 2.91182 138.858 2.12938 136.368 1.72434C130.961 0.844901 124.622 0.622222 119.204 0.607272C108.314 0.577222 96.3553 1.4176 92.5499 1.95771L98.5625 44.3202Z" fill="url(#paint0_linear_226_526)"/>
</g>
<defs>
<linearGradient id="paint0_linear_226_526" x1="16" y1="31.5" x2="139.033" y2="31.5" gradientUnits="userSpaceOnUse">
<stop stop-color="#B38FFF"/>
<stop offset="1" stop-color="#0849F1" stop-opacity="0.85"/>
</linearGradient>
</defs>
</svg>
