<svg width="606" height="119" viewBox="0 0 606 119" fill="none" xmlns="http://www.w3.org/2000/svg">
<path d="M108.24 11.84L93.6 68H77.04L68.08 31.04L58.8 68H42.24L28 11.84H42.64L50.72 52.72L60.72 11.84H75.76L85.36 52.72L93.52 11.84H108.24ZM142.541 22.88C147.661 22.88 151.767 24.5867 154.861 28C157.954 31.36 159.501 36 159.501 41.92V68H145.901V43.76C145.901 40.7733 145.127 38.4533 143.581 36.8C142.034 35.1467 139.954 34.32 137.341 34.32C134.727 34.32 132.647 35.1467 131.101 36.8C129.554 38.4533 128.781 40.7733 128.781 43.76V68H115.101V8.8H128.781V29.36C130.167 27.3867 132.061 25.8133 134.461 24.64C136.861 23.4667 139.554 22.88 142.541 22.88ZM166.287 45.6C166.287 41.0133 167.14 36.9867 168.847 33.52C170.607 30.0533 172.98 27.3867 175.967 25.52C178.954 23.6533 182.287 22.72 185.967 22.72C189.114 22.72 191.86 23.36 194.207 24.64C196.607 25.92 198.447 27.6 199.727 29.68V23.36H213.407V68H199.727V61.68C198.394 63.76 196.527 65.44 194.127 66.72C191.78 68 189.034 68.64 185.887 68.64C182.26 68.64 178.954 67.7067 175.967 65.84C172.98 63.92 170.607 61.2267 168.847 57.76C167.14 54.24 166.287 50.1867 166.287 45.6ZM199.727 45.68C199.727 42.2667 198.767 39.5733 196.847 37.6C194.98 35.6267 192.687 34.64 189.967 34.64C187.247 34.64 184.927 35.6267 183.007 37.6C181.14 39.52 180.207 42.1867 180.207 45.6C180.207 49.0133 181.14 51.7333 183.007 53.76C184.927 55.7333 187.247 56.72 189.967 56.72C192.687 56.72 194.98 55.7333 196.847 53.76C198.767 51.7867 199.727 49.0933 199.727 45.68ZM248.184 56.4V68H241.224C236.264 68 232.397 66.8 229.624 64.4C226.85 61.9467 225.464 57.9733 225.464 52.48V34.72H220.024V23.36H225.464V12.48H239.144V23.36H248.104V34.72H239.144V52.64C239.144 53.9733 239.464 54.9333 240.104 55.52C240.744 56.1067 241.81 56.4 243.304 56.4H248.184ZM279.637 18.72C277.237 18.72 275.264 18.0267 273.717 16.64C272.224 15.2 271.477 13.44 271.477 11.36C271.477 9.22667 272.224 7.46666 273.717 6.08C275.264 4.64 277.237 3.92 279.637 3.92C281.984 3.92 283.904 4.64 285.397 6.08C286.944 7.46666 287.717 9.22667 287.717 11.36C287.717 13.44 286.944 15.2 285.397 16.64C283.904 18.0267 281.984 18.72 279.637 18.72ZM286.437 23.36V68H272.757V23.36H286.437ZM314.511 68.64C310.617 68.64 307.151 67.9733 304.111 66.64C301.071 65.3067 298.671 63.4933 296.911 61.2C295.151 58.8533 294.164 56.24 293.951 53.36H307.471C307.631 54.9067 308.351 56.16 309.631 57.12C310.911 58.08 312.484 58.56 314.351 58.56C316.057 58.56 317.364 58.24 318.271 57.6C319.231 56.9067 319.711 56.0267 319.711 54.96C319.711 53.68 319.044 52.7467 317.711 52.16C316.377 51.52 314.217 50.8267 311.231 50.08C308.031 49.3333 305.364 48.56 303.231 47.76C301.097 46.9067 299.257 45.6 297.711 43.84C296.164 42.0267 295.391 39.6 295.391 36.56C295.391 34 296.084 31.68 297.471 29.6C298.911 27.4667 300.991 25.7867 303.711 24.56C306.484 23.3333 309.764 22.72 313.551 22.72C319.151 22.72 323.551 24.1067 326.751 26.88C330.004 29.6533 331.871 33.3333 332.351 37.92H319.711C319.497 36.3733 318.804 35.1467 317.631 34.24C316.511 33.3333 315.017 32.88 313.151 32.88C311.551 32.88 310.324 33.2 309.471 33.84C308.617 34.4267 308.191 35.2533 308.191 36.32C308.191 37.6 308.857 38.56 310.191 39.2C311.577 39.84 313.711 40.48 316.591 41.12C319.897 41.9733 322.591 42.8267 324.671 43.68C326.751 44.48 328.564 45.8133 330.111 47.68C331.711 49.4933 332.537 51.9467 332.591 55.04C332.591 57.6533 331.844 60 330.351 62.08C328.911 64.1067 326.804 65.7067 324.031 66.88C321.311 68.0533 318.137 68.64 314.511 68.64ZM371.593 57.44H389.513V68H357.913V11.84H371.593V57.44ZM409.718 22.8V34.16H428.038V44.72H409.718V57.04H430.438V68H396.038V11.84H430.438V22.8H409.718ZM489.559 68H475.879L452.999 33.36V68H439.319V11.84H452.999L475.879 46.64V11.84H489.559V68ZM534.436 58.08H513.476L510.116 68H495.796L516.116 11.84H531.956L552.276 68H537.796L534.436 58.08ZM530.916 47.52L523.956 26.96L517.076 47.52H530.916ZM574.86 8.72C580.567 8.72 585.127 10.2133 588.54 13.2C592.007 16.1867 593.74 20.4 593.74 25.84C593.74 30.8533 592.087 34.7733 588.78 37.6C585.527 40.3733 581.207 41.7867 575.82 41.84L575.42 47.84H563.42L563.02 32.96H567.82C571.927 32.96 575.047 32.4533 577.18 31.44C579.367 30.4267 580.46 28.5867 580.46 25.92C580.46 24.0533 579.953 22.5867 578.94 21.52C577.927 20.4533 576.513 19.92 574.7 19.92C572.78 19.92 571.287 20.48 570.22 21.6C569.153 22.6667 568.62 24.1333 568.62 26H555.74C555.633 22.7467 556.3 19.8133 557.74 17.2C559.233 14.5867 561.42 12.5333 564.3 11.04C567.233 9.49333 570.753 8.72 574.86 8.72ZM569.58 68.64C567.18 68.64 565.207 67.9467 563.66 66.56C562.167 65.12 561.42 63.36 561.42 61.28C561.42 59.1467 562.167 57.36 563.66 55.92C565.207 54.48 567.18 53.76 569.58 53.76C571.927 53.76 573.847 54.48 575.34 55.92C576.887 57.36 577.66 59.1467 577.66 61.28C577.66 63.36 576.887 65.12 575.34 66.56C573.847 67.9467 571.927 68.64 569.58 68.64Z" fill="#313131"/>
<path d="M592 104.222C303 81.2221 14 104.222 14 104.222" stroke="url(#paint0_linear_389_526)" stroke-width="28" stroke-linecap="round"/>
<defs>
<linearGradient id="paint0_linear_389_526" x1="3.5" y1="110.722" x2="589" y2="110.722" gradientUnits="userSpaceOnUse">
<stop stop-color="#7864FF"/>
<stop offset="1" stop-color="#32A6FF"/>
</linearGradient>
</defs>
</svg>
