<svg width="72" height="72" viewBox="0 0 72 72" fill="none" xmlns="http://www.w3.org/2000/svg">
<g clip-path="url(#clip0_398_541)">
<path d="M19.9278 53.8896V23.8741H25.7707V53.8896H19.9278ZM22.8786 19.2428C21.8624 19.2428 20.9896 18.9041 20.26 18.2266C19.5435 17.5362 19.1852 16.7154 19.1852 15.7644C19.1852 14.8004 19.5435 13.9796 20.26 13.3022C20.9896 12.6118 21.8624 12.2665 22.8786 12.2665C23.8947 12.2665 24.7611 12.6118 25.4776 13.3022C26.2071 13.9796 26.5719 14.8004 26.5719 15.7644C26.5719 16.7154 26.2071 17.5362 25.4776 18.2266C24.7611 18.9041 23.8947 19.2428 22.8786 19.2428Z" fill="#141413"/>
<path d="M30.6274 54V24.0457H42.6353C45.6628 24.0457 48.2536 24.5842 50.4077 25.6613C52.5619 26.7384 54.2212 28.3831 55.3856 30.5955C56.55 32.7787 57.1322 35.5878 57.1322 39.0228C57.1322 42.4287 56.55 45.2379 55.3856 47.4502C54.2212 49.6626 52.5619 51.3073 50.4077 52.3844C48.2536 53.4615 45.6628 54 42.6353 54H30.6274ZM36.3039 49.1532H42.6353C44.0326 49.1532 45.2698 48.9494 46.3469 48.5419C47.4239 48.1343 48.3264 47.5376 49.0541 46.7516C49.7819 45.9365 50.335 44.9322 50.7134 43.7387C51.0918 42.5161 51.281 41.1042 51.281 39.5032V38.5862C51.281 36.956 51.0918 35.5442 50.7134 34.3507C50.335 33.128 49.7819 32.1237 49.0541 31.3378C48.3264 30.5227 47.4239 29.9114 46.3469 29.5038C45.2698 29.0963 44.0326 28.8925 42.6353 28.8925H36.3039V49.1532Z" fill="#141413"/>
</g>
<defs>
<clipPath id="clip0_398_541">
<rect width="72" height="72" fill="white"/>
</clipPath>
</defs>
</svg>
