<svg width="602" height="119" viewBox="0 0 602 119" fill="none" xmlns="http://www.w3.org/2000/svg">
<path d="M75.52 68.56C70.24 68.56 65.3867 67.3333 60.96 64.88C56.5867 62.4267 53.0933 59.0133 50.48 54.64C47.92 50.2133 46.64 45.2533 46.64 39.76C46.64 34.2667 47.92 29.3333 50.48 24.96C53.0933 20.5867 56.5867 17.1733 60.96 14.72C65.3867 12.2667 70.24 11.04 75.52 11.04C80.8 11.04 85.6267 12.2667 90 14.72C94.4267 17.1733 97.8933 20.5867 100.4 24.96C102.96 29.3333 104.24 34.2667 104.24 39.76C104.24 45.2533 102.96 50.2133 100.4 54.64C97.84 59.0133 94.3733 62.4267 90 64.88C85.6267 67.3333 80.8 68.56 75.52 68.56ZM75.52 56.08C80 56.08 83.5733 54.5867 86.24 51.6C88.96 48.6133 90.32 44.6667 90.32 39.76C90.32 34.8 88.96 30.8533 86.24 27.92C83.5733 24.9333 80 23.44 75.52 23.44C70.9867 23.44 67.36 24.9067 64.64 27.84C61.9733 30.7733 60.64 34.7467 60.64 39.76C60.64 44.72 61.9733 48.6933 64.64 51.68C67.36 54.6133 70.9867 56.08 75.52 56.08ZM155.931 23.36V68H142.251V61.92C140.864 63.8933 138.971 65.4933 136.571 66.72C134.224 67.8933 131.611 68.48 128.731 68.48C125.317 68.48 122.304 67.7333 119.691 66.24C117.077 64.6933 115.051 62.48 113.611 59.6C112.171 56.72 111.451 53.3333 111.451 49.44V23.36H125.051V47.6C125.051 50.5867 125.824 52.9067 127.371 54.56C128.917 56.2133 130.997 57.04 133.611 57.04C136.277 57.04 138.384 56.2133 139.931 54.56C141.477 52.9067 142.251 50.5867 142.251 47.6V23.36H155.931ZM179.437 30.8C181.037 28.3467 183.037 26.4267 185.437 25.04C187.837 23.6 190.504 22.88 193.437 22.88V37.36H189.677C186.264 37.36 183.704 38.1067 181.997 39.6C180.29 41.04 179.437 43.6 179.437 47.28V68H165.757V23.36H179.437V30.8ZM267.169 68H253.489L230.609 33.36V68H216.929V11.84H230.609L253.489 46.64V11.84H267.169V68ZM319.165 44.96C319.165 46.24 319.085 47.5733 318.925 48.96H287.965C288.178 51.7333 289.058 53.8667 290.605 55.36C292.205 56.8 294.152 57.52 296.445 57.52C299.858 57.52 302.232 56.08 303.565 53.2H318.125C317.378 56.1333 316.018 58.7733 314.045 61.12C312.125 63.4667 309.698 65.3067 306.765 66.64C303.832 67.9733 300.552 68.64 296.925 68.64C292.552 68.64 288.658 67.7067 285.245 65.84C281.832 63.9733 279.165 61.3067 277.245 57.84C275.325 54.3733 274.365 50.32 274.365 45.68C274.365 41.04 275.298 36.9867 277.165 33.52C279.085 30.0533 281.752 27.3867 285.165 25.52C288.578 23.6533 292.498 22.72 296.925 22.72C301.245 22.72 305.085 23.6267 308.445 25.44C311.805 27.2533 314.418 29.84 316.285 33.2C318.205 36.56 319.165 40.48 319.165 44.96ZM305.165 41.36C305.165 39.0133 304.365 37.1467 302.765 35.76C301.165 34.3733 299.165 33.68 296.765 33.68C294.472 33.68 292.525 34.3467 290.925 35.68C289.378 37.0133 288.418 38.9067 288.045 41.36H305.165ZM351.262 56.4V68H344.302C339.342 68 335.475 66.8 332.702 64.4C329.929 61.9467 328.542 57.9733 328.542 52.48V34.72H323.102V23.36H328.542V12.48H342.222V23.36H351.182V34.72H342.222V52.64C342.222 53.9733 342.542 54.9333 343.182 55.52C343.822 56.1067 344.889 56.4 346.382 56.4H351.262ZM422.962 23.36L410.882 68H395.762L388.722 39.04L381.442 68H366.402L354.242 23.36H367.922L374.242 55.28L381.762 23.36H396.242L403.842 55.12L410.082 23.36H422.962ZM448.499 68.64C444.125 68.64 440.179 67.7067 436.659 65.84C433.192 63.9733 430.445 61.3067 428.419 57.84C426.445 54.3733 425.459 50.32 425.459 45.68C425.459 41.0933 426.472 37.0667 428.499 33.6C430.525 30.08 433.299 27.3867 436.819 25.52C440.339 23.6533 444.285 22.72 448.659 22.72C453.032 22.72 456.979 23.6533 460.499 25.52C464.019 27.3867 466.792 30.08 468.819 33.6C470.845 37.0667 471.859 41.0933 471.859 45.68C471.859 50.2667 470.819 54.32 468.739 57.84C466.712 61.3067 463.912 63.9733 460.339 65.84C456.819 67.7067 452.872 68.64 448.499 68.64ZM448.499 56.8C451.112 56.8 453.325 55.84 455.139 53.92C457.005 52 457.939 49.2533 457.939 45.68C457.939 42.1067 457.032 39.36 455.219 37.44C453.459 35.52 451.272 34.56 448.659 34.56C445.992 34.56 443.779 35.52 442.019 37.44C440.259 39.3067 439.379 42.0533 439.379 45.68C439.379 49.2533 440.232 52 441.939 53.92C443.699 55.84 445.885 56.8 448.499 56.8ZM492.796 30.8C494.396 28.3467 496.396 26.4267 498.796 25.04C501.196 23.6 503.863 22.88 506.796 22.88V37.36H503.036C499.623 37.36 497.063 38.1067 495.356 39.6C493.65 41.04 492.796 43.6 492.796 47.28V68H479.116V23.36H492.796V30.8ZM540.615 68L527.015 49.28V68H513.335V8.8H527.015V41.52L540.535 23.36H557.415L538.855 45.76L557.575 68H540.615Z" fill="#3D3D3D"/>
<path d="M590 107.222C301 84.2221 12 107.222 12 107.222" stroke="url(#paint0_linear_343_526)" stroke-width="23" stroke-linecap="round"/>
<defs>
<linearGradient id="paint0_linear_343_526" x1="1.5" y1="113.722" x2="587" y2="113.722" gradientUnits="userSpaceOnUse">
<stop stop-color="#7864FF"/>
<stop offset="1" stop-color="#32A6FF"/>
</linearGradient>
</defs>
</svg>
