<svg width="703" height="121" viewBox="0 0 703 121" fill="none" xmlns="http://www.w3.org/2000/svg">
<path d="M54.76 29.92C54.76 33.1733 54.0133 36.16 52.52 38.88C51.0267 41.5467 48.7333 43.7067 45.64 45.36C42.5467 47.0133 38.7067 47.84 34.12 47.84H25.64V68H11.96V11.84H34.12C38.6 11.84 42.3867 12.6133 45.48 14.16C48.5733 15.7067 50.8933 17.84 52.44 20.56C53.9867 23.28 54.76 26.4 54.76 29.92ZM33.08 36.96C35.6933 36.96 37.64 36.3467 38.92 35.12C40.2 33.8933 40.84 32.16 40.84 29.92C40.84 27.68 40.2 25.9467 38.92 24.72C37.64 23.4933 35.6933 22.88 33.08 22.88H25.64V36.96H33.08ZM59.1619 45.6C59.1619 41.0133 60.0152 36.9867 61.7219 33.52C63.4819 30.0533 65.8552 27.3867 68.8419 25.52C71.8285 23.6533 75.1619 22.72 78.8419 22.72C81.9885 22.72 84.7352 23.36 87.0819 24.64C89.4819 25.92 91.3219 27.6 92.6019 29.68V23.36H106.282V68H92.6019V61.68C91.2685 63.76 89.4019 65.44 87.0019 66.72C84.6552 68 81.9085 68.64 78.7619 68.64C75.1352 68.64 71.8285 67.7067 68.8419 65.84C65.8552 63.92 63.4819 61.2267 61.7219 57.76C60.0152 54.24 59.1619 50.1867 59.1619 45.6ZM92.6019 45.68C92.6019 42.2667 91.6419 39.5733 89.7219 37.6C87.8552 35.6267 85.5619 34.64 82.8419 34.64C80.1219 34.64 77.8019 35.6267 75.8819 37.6C74.0152 39.52 73.0819 42.1867 73.0819 45.6C73.0819 49.0133 74.0152 51.7333 75.8819 53.76C77.8019 55.7333 80.1219 56.72 82.8419 56.72C85.5619 56.72 87.8552 55.7333 89.7219 53.76C91.6419 51.7867 92.6019 49.0933 92.6019 45.68ZM129.859 30.8C131.459 28.3467 133.459 26.4267 135.859 25.04C138.259 23.6 140.925 22.88 143.859 22.88V37.36H140.099C136.685 37.36 134.125 38.1067 132.419 39.6C130.712 41.04 129.859 43.6 129.859 47.28V68H116.179V23.36H129.859V30.8ZM175.278 56.4V68H168.318C163.358 68 159.491 66.8 156.718 64.4C153.944 61.9467 152.558 57.9733 152.558 52.48V34.72H147.118V23.36H152.558V12.48H166.238V23.36H175.198V34.72H166.238V52.64C166.238 53.9733 166.558 54.9333 167.198 55.52C167.838 56.1067 168.904 56.4 170.398 56.4H175.278ZM189.778 18.72C187.378 18.72 185.404 18.0267 183.858 16.64C182.364 15.2 181.618 13.44 181.618 11.36C181.618 9.22667 182.364 7.46666 183.858 6.08C185.404 4.64 187.378 3.92 189.778 3.92C192.124 3.92 194.044 4.64 195.538 6.08C197.084 7.46666 197.858 9.22667 197.858 11.36C197.858 13.44 197.084 15.2 195.538 16.64C194.044 18.0267 192.124 18.72 189.778 18.72ZM196.578 23.36V68H182.898V23.36H196.578ZM203.771 45.68C203.771 41.04 204.705 36.9867 206.571 33.52C208.491 30.0533 211.131 27.3867 214.491 25.52C217.905 23.6533 221.798 22.72 226.171 22.72C231.771 22.72 236.438 24.1867 240.171 27.12C243.958 30.0533 246.438 34.1867 247.611 39.52H233.051C231.825 36.1067 229.451 34.4 225.931 34.4C223.425 34.4 221.425 35.3867 219.931 37.36C218.438 39.28 217.691 42.0533 217.691 45.68C217.691 49.3067 218.438 52.1067 219.931 54.08C221.425 56 223.425 56.96 225.931 56.96C229.451 56.96 231.825 55.2533 233.051 51.84H247.611C246.438 57.0667 243.958 61.1733 240.171 64.16C236.385 67.1467 231.718 68.64 226.171 68.64C221.798 68.64 217.905 67.7067 214.491 65.84C211.131 63.9733 208.491 61.3067 206.571 57.84C204.705 54.3733 203.771 50.32 203.771 45.68ZM261.809 18.72C259.409 18.72 257.435 18.0267 255.889 16.64C254.395 15.2 253.649 13.44 253.649 11.36C253.649 9.22667 254.395 7.46666 255.889 6.08C257.435 4.64 259.409 3.92 261.809 3.92C264.155 3.92 266.075 4.64 267.569 6.08C269.115 7.46666 269.889 9.22667 269.889 11.36C269.889 13.44 269.115 15.2 267.569 16.64C266.075 18.0267 264.155 18.72 261.809 18.72ZM268.609 23.36V68H254.929V23.36H268.609ZM292.203 29.68C293.536 27.6 295.376 25.92 297.723 24.64C300.069 23.36 302.816 22.72 305.963 22.72C309.643 22.72 312.976 23.6533 315.963 25.52C318.949 27.3867 321.296 30.0533 323.003 33.52C324.763 36.9867 325.643 41.0133 325.643 45.6C325.643 50.1867 324.763 54.24 323.003 57.76C321.296 61.2267 318.949 63.92 315.963 65.84C312.976 67.7067 309.643 68.64 305.963 68.64C302.869 68.64 300.123 68 297.723 66.72C295.376 65.44 293.536 63.7867 292.203 61.76V89.28H278.523V23.36H292.203V29.68ZM311.723 45.6C311.723 42.1867 310.763 39.52 308.843 37.6C306.976 35.6267 304.656 34.64 301.883 34.64C299.163 34.64 296.843 35.6267 294.923 37.6C293.056 39.5733 292.123 42.2667 292.123 45.68C292.123 49.0933 293.056 51.7867 294.923 53.76C296.843 55.7333 299.163 56.72 301.883 56.72C304.603 56.72 306.923 55.7333 308.843 53.76C310.763 51.7333 311.723 49.0133 311.723 45.6ZM330.099 45.6C330.099 41.0133 330.953 36.9867 332.659 33.52C334.419 30.0533 336.793 27.3867 339.779 25.52C342.766 23.6533 346.099 22.72 349.779 22.72C352.926 22.72 355.673 23.36 358.019 24.64C360.419 25.92 362.259 27.6 363.539 29.68V23.36H377.219V68H363.539V61.68C362.206 63.76 360.339 65.44 357.939 66.72C355.593 68 352.846 68.64 349.699 68.64C346.073 68.64 342.766 67.7067 339.779 65.84C336.793 63.92 334.419 61.2267 332.659 57.76C330.953 54.24 330.099 50.1867 330.099 45.6ZM363.539 45.68C363.539 42.2667 362.579 39.5733 360.659 37.6C358.793 35.6267 356.499 34.64 353.779 34.64C351.059 34.64 348.739 35.6267 346.819 37.6C344.953 39.52 344.019 42.1867 344.019 45.6C344.019 49.0133 344.953 51.7333 346.819 53.76C348.739 55.7333 351.059 56.72 353.779 56.72C356.499 56.72 358.793 55.7333 360.659 53.76C362.579 51.7867 363.539 49.0933 363.539 45.68ZM411.996 56.4V68H405.036C400.076 68 396.21 66.8 393.436 64.4C390.663 61.9467 389.276 57.9733 389.276 52.48V34.72H383.836V23.36H389.276V12.48H402.956V23.36H411.916V34.72H402.956V52.64C402.956 53.9733 403.276 54.9333 403.916 55.52C404.556 56.1067 405.623 56.4 407.116 56.4H411.996ZM461.696 44.96C461.696 46.24 461.616 47.5733 461.456 48.96H430.496C430.71 51.7333 431.59 53.8667 433.136 55.36C434.736 56.8 436.683 57.52 438.976 57.52C442.39 57.52 444.763 56.08 446.096 53.2H460.656C459.91 56.1333 458.55 58.7733 456.576 61.12C454.656 63.4667 452.23 65.3067 449.296 66.64C446.363 67.9733 443.083 68.64 439.456 68.64C435.083 68.64 431.19 67.7067 427.776 65.84C424.363 63.9733 421.696 61.3067 419.776 57.84C417.856 54.3733 416.896 50.32 416.896 45.68C416.896 41.04 417.83 36.9867 419.696 33.52C421.616 30.0533 424.283 27.3867 427.696 25.52C431.11 23.6533 435.03 22.72 439.456 22.72C443.776 22.72 447.616 23.6267 450.976 25.44C454.336 27.2533 456.95 29.84 458.816 33.2C460.736 36.56 461.696 40.48 461.696 44.96ZM447.696 41.36C447.696 39.0133 446.896 37.1467 445.296 35.76C443.696 34.3733 441.696 33.68 439.296 33.68C437.003 33.68 435.056 34.3467 433.456 35.68C431.91 37.0133 430.95 38.9067 430.576 41.36H447.696ZM536.106 68H522.426L499.546 33.36V68H485.866V11.84H499.546L522.426 46.64V11.84H536.106V68ZM566.343 68.64C561.969 68.64 558.023 67.7067 554.503 65.84C551.036 63.9733 548.289 61.3067 546.263 57.84C544.289 54.3733 543.303 50.32 543.303 45.68C543.303 41.0933 544.316 37.0667 546.342 33.6C548.369 30.08 551.143 27.3867 554.663 25.52C558.183 23.6533 562.129 22.72 566.503 22.72C570.876 22.72 574.823 23.6533 578.343 25.52C581.863 27.3867 584.636 30.08 586.663 33.6C588.689 37.0667 589.703 41.0933 589.703 45.68C589.703 50.2667 588.663 54.32 586.583 57.84C584.556 61.3067 581.756 63.9733 578.183 65.84C574.663 67.7067 570.716 68.64 566.343 68.64ZM566.343 56.8C568.956 56.8 571.169 55.84 572.983 53.92C574.849 52 575.783 49.2533 575.783 45.68C575.783 42.1067 574.876 39.36 573.063 37.44C571.303 35.52 569.116 34.56 566.503 34.56C563.836 34.56 561.623 35.52 559.863 37.44C558.103 39.3067 557.223 42.0533 557.223 45.68C557.223 49.2533 558.076 52 559.783 53.92C561.543 55.84 563.729 56.8 566.343 56.8ZM661.04 23.36L648.96 68H633.84L626.8 39.04L619.52 68H604.48L592.32 23.36H606L612.32 55.28L619.84 23.36H634.32L641.92 55.12L648.16 23.36H661.04ZM684.257 9.84L682.657 48.16H671.057L669.457 9.84H684.257ZM677.057 68.64C674.657 68.64 672.684 67.9467 671.137 66.56C669.644 65.12 668.897 63.36 668.897 61.28C668.897 59.1467 669.644 57.36 671.137 55.92C672.684 54.48 674.657 53.76 677.057 53.76C679.404 53.76 681.324 54.48 682.817 55.92C684.364 57.36 685.137 59.1467 685.137 61.28C685.137 63.36 684.364 65.12 682.817 66.56C681.324 67.9467 679.404 68.64 677.057 68.64Z" fill="#313131"/>
<path d="M689 107C351.5 84.5 14 107 14 107" stroke="url(#paint0_linear_389_526)" stroke-width="28" stroke-linecap="round"/>
<defs>
<linearGradient id="paint0_linear_389_526" x1="1.73789" y1="113.359" x2="685.496" y2="113.359" gradientUnits="userSpaceOnUse">
<stop stop-color="#7864FF"/>
<stop offset="1" stop-color="#32A6FF"/>
</linearGradient>
</defs>
</svg>
