<svg width="606" height="122" viewBox="0 0 606 122" fill="none" xmlns="http://www.w3.org/2000/svg">
<path d="M93.76 29.92C93.76 33.1733 93.0133 36.16 91.52 38.88C90.0267 41.5467 87.7333 43.7067 84.64 45.36C81.5467 47.0133 77.7067 47.84 73.12 47.84H64.64V68H50.96V11.84H73.12C77.6 11.84 81.3867 12.6133 84.48 14.16C87.5733 15.7067 89.8933 17.84 91.44 20.56C92.9867 23.28 93.76 26.4 93.76 29.92ZM72.08 36.96C74.6933 36.96 76.64 36.3467 77.92 35.12C79.2 33.8933 79.84 32.16 79.84 29.92C79.84 27.68 79.2 25.9467 77.92 24.72C76.64 23.4933 74.6933 22.88 72.08 22.88H64.64V36.96H72.08ZM144.962 23.36V68H131.282V61.92C129.895 63.8933 128.002 65.4933 125.602 66.72C123.255 67.8933 120.642 68.48 117.762 68.48C114.349 68.48 111.335 67.7333 108.722 66.24C106.109 64.6933 104.082 62.48 102.642 59.6C101.202 56.72 100.482 53.3333 100.482 49.44V23.36H114.082V47.6C114.082 50.5867 114.855 52.9067 116.402 54.56C117.949 56.2133 120.029 57.04 122.642 57.04C125.309 57.04 127.415 56.2133 128.962 54.56C130.509 52.9067 131.282 50.5867 131.282 47.6V23.36H144.962ZM168.468 29.68C169.748 27.6 171.588 25.92 173.988 24.64C176.388 23.36 179.135 22.72 182.228 22.72C185.908 22.72 189.241 23.6533 192.228 25.52C195.215 27.3867 197.561 30.0533 199.268 33.52C201.028 36.9867 201.908 41.0133 201.908 45.6C201.908 50.1867 201.028 54.24 199.268 57.76C197.561 61.2267 195.215 63.92 192.228 65.84C189.241 67.7067 185.908 68.64 182.228 68.64C179.081 68.64 176.335 68.0267 173.988 66.8C171.641 65.52 169.801 63.84 168.468 61.76V68H154.788V8.8H168.468V29.68ZM187.988 45.6C187.988 42.1867 187.028 39.52 185.108 37.6C183.241 35.6267 180.921 34.64 178.148 34.64C175.428 34.64 173.108 35.6267 171.188 37.6C169.321 39.5733 168.388 42.2667 168.388 45.68C168.388 49.0933 169.321 51.7867 171.188 53.76C173.108 55.7333 175.428 56.72 178.148 56.72C180.868 56.72 183.188 55.7333 185.108 53.76C187.028 51.7333 187.988 49.0133 187.988 45.6ZM222.765 8.8V68H209.085V8.8H222.765ZM239.559 18.72C237.159 18.72 235.185 18.0267 233.639 16.64C232.145 15.2 231.399 13.44 231.399 11.36C231.399 9.22667 232.145 7.46666 233.639 6.08C235.185 4.64 237.159 3.92 239.559 3.92C241.905 3.92 243.825 4.64 245.319 6.08C246.865 7.46666 247.639 9.22667 247.639 11.36C247.639 13.44 246.865 15.2 245.319 16.64C243.825 18.0267 241.905 18.72 239.559 18.72ZM246.359 23.36V68H232.679V23.36H246.359ZM253.553 45.68C253.553 41.04 254.486 36.9867 256.353 33.52C258.273 30.0533 260.913 27.3867 264.273 25.52C267.686 23.6533 271.579 22.72 275.953 22.72C281.553 22.72 286.219 24.1867 289.953 27.12C293.739 30.0533 296.219 34.1867 297.393 39.52H282.833C281.606 36.1067 279.233 34.4 275.713 34.4C273.206 34.4 271.206 35.3867 269.713 37.36C268.219 39.28 267.473 42.0533 267.473 45.68C267.473 49.3067 268.219 52.1067 269.713 54.08C271.206 56 273.206 56.96 275.713 56.96C279.233 56.96 281.606 55.2533 282.833 51.84H297.393C296.219 57.0667 293.739 61.1733 289.953 64.16C286.166 67.1467 281.499 68.64 275.953 68.64C271.579 68.64 267.686 67.7067 264.273 65.84C260.913 63.9733 258.273 61.3067 256.353 57.84C254.486 54.3733 253.553 50.32 253.553 45.68ZM301.99 45.6C301.99 41.0133 302.843 36.9867 304.55 33.52C306.31 30.0533 308.683 27.3867 311.67 25.52C314.657 23.6533 317.99 22.72 321.67 22.72C324.817 22.72 327.563 23.36 329.91 24.64C332.31 25.92 334.15 27.6 335.43 29.68V23.36H349.11V68H335.43V61.68C334.097 63.76 332.23 65.44 329.83 66.72C327.483 68 324.737 68.64 321.59 68.64C317.963 68.64 314.657 67.7067 311.67 65.84C308.683 63.92 306.31 61.2267 304.55 57.76C302.843 54.24 301.99 50.1867 301.99 45.6ZM335.43 45.68C335.43 42.2667 334.47 39.5733 332.55 37.6C330.683 35.6267 328.39 34.64 325.67 34.64C322.95 34.64 320.63 35.6267 318.71 37.6C316.843 39.52 315.91 42.1867 315.91 45.6C315.91 49.0133 316.843 51.7333 318.71 53.76C320.63 55.7333 322.95 56.72 325.67 56.72C328.39 56.72 330.683 55.7333 332.55 53.76C334.47 51.7867 335.43 49.0933 335.43 45.68ZM383.887 56.4V68H376.927C371.967 68 368.1 66.8 365.327 64.4C362.554 61.9467 361.167 57.9733 361.167 52.48V34.72H355.727V23.36H361.167V12.48H374.847V23.36H383.807V34.72H374.847V52.64C374.847 53.9733 375.167 54.9333 375.807 55.52C376.447 56.1067 377.514 56.4 379.007 56.4H383.887ZM398.387 18.72C395.987 18.72 394.014 18.0267 392.467 16.64C390.974 15.2 390.227 13.44 390.227 11.36C390.227 9.22667 390.974 7.46666 392.467 6.08C394.014 4.64 395.987 3.92 398.387 3.92C400.734 3.92 402.654 4.64 404.147 6.08C405.694 7.46666 406.467 9.22667 406.467 11.36C406.467 13.44 405.694 15.2 404.147 16.64C402.654 18.0267 400.734 18.72 398.387 18.72ZM405.187 23.36V68H391.507V23.36H405.187ZM435.421 68.64C431.047 68.64 427.101 67.7067 423.581 65.84C420.114 63.9733 417.367 61.3067 415.341 57.84C413.367 54.3733 412.381 50.32 412.381 45.68C412.381 41.0933 413.394 37.0667 415.421 33.6C417.447 30.08 420.221 27.3867 423.741 25.52C427.261 23.6533 431.207 22.72 435.581 22.72C439.954 22.72 443.901 23.6533 447.421 25.52C450.941 27.3867 453.714 30.08 455.741 33.6C457.767 37.0667 458.781 41.0933 458.781 45.68C458.781 50.2667 457.741 54.32 455.661 57.84C453.634 61.3067 450.834 63.9733 447.261 65.84C443.741 67.7067 439.794 68.64 435.421 68.64ZM435.421 56.8C438.034 56.8 440.247 55.84 442.061 53.92C443.927 52 444.861 49.2533 444.861 45.68C444.861 42.1067 443.954 39.36 442.141 37.44C440.381 35.52 438.194 34.56 435.581 34.56C432.914 34.56 430.701 35.52 428.941 37.44C427.181 39.3067 426.301 42.0533 426.301 45.68C426.301 49.2533 427.154 52 428.861 53.92C430.621 55.84 432.807 56.8 435.421 56.8ZM493.238 22.88C498.465 22.88 502.625 24.5867 505.718 28C508.865 31.36 510.438 36 510.438 41.92V68H496.838V43.76C496.838 40.7733 496.065 38.4533 494.518 36.8C492.971 35.1467 490.891 34.32 488.278 34.32C485.665 34.32 483.585 35.1467 482.038 36.8C480.491 38.4533 479.718 40.7733 479.718 43.76V68H466.038V23.36H479.718V29.28C481.105 27.3067 482.971 25.76 485.318 24.64C487.665 23.4667 490.305 22.88 493.238 22.88ZM538.104 68.64C534.211 68.64 530.744 67.9733 527.704 66.64C524.664 65.3067 522.264 63.4933 520.504 61.2C518.744 58.8533 517.758 56.24 517.544 53.36H531.064C531.224 54.9067 531.944 56.16 533.224 57.12C534.504 58.08 536.078 58.56 537.944 58.56C539.651 58.56 540.958 58.24 541.864 57.6C542.824 56.9067 543.304 56.0267 543.304 54.96C543.304 53.68 542.638 52.7467 541.304 52.16C539.971 51.52 537.811 50.8267 534.824 50.08C531.624 49.3333 528.958 48.56 526.824 47.76C524.691 46.9067 522.851 45.6 521.304 43.84C519.758 42.0267 518.984 39.6 518.984 36.56C518.984 34 519.678 31.68 521.064 29.6C522.504 27.4667 524.584 25.7867 527.304 24.56C530.078 23.3333 533.358 22.72 537.144 22.72C542.744 22.72 547.144 24.1067 550.344 26.88C553.598 29.6533 555.464 33.3333 555.944 37.92H543.304C543.091 36.3733 542.398 35.1467 541.224 34.24C540.104 33.3333 538.611 32.88 536.744 32.88C535.144 32.88 533.918 33.2 533.064 33.84C532.211 34.4267 531.784 35.2533 531.784 36.32C531.784 37.6 532.451 38.56 533.784 39.2C535.171 39.84 537.304 40.48 540.184 41.12C543.491 41.9733 546.184 42.8267 548.264 43.68C550.344 44.48 552.158 45.8133 553.704 47.68C555.304 49.4933 556.131 51.9467 556.184 55.04C556.184 57.6533 555.438 60 553.944 62.08C552.504 64.1067 550.398 65.7067 547.624 66.88C544.904 68.0533 541.731 68.64 538.104 68.64Z" fill="#F2F2F2"/>
<path d="M592 107.222C303 84.2221 14 107.222 14 107.222" stroke="url(#paint0_linear_343_527)" stroke-width="28" stroke-linecap="round"/>
<defs>
<linearGradient id="paint0_linear_343_527" x1="3.5" y1="113.722" x2="589" y2="113.722" gradientUnits="userSpaceOnUse">
<stop stop-color="#7864FF"/>
<stop offset="1" stop-color="#32A6FF"/>
</linearGradient>
</defs>
</svg>
