<svg width="462" height="131" viewBox="0 0 462 131" fill="none" xmlns="http://www.w3.org/2000/svg">
<path d="M10.4688 32.7422C6.64062 32.7422 4.72656 30.2422 4.72656 25.2422V24.8906L4.76562 24.5781C4.76562 21.5833 5.54688 18.875 7.10938 16.4531C8.67188 14.0052 10.1432 12.2995 11.5234 11.3359C12.9297 10.3724 13.9323 9.89062 14.5312 9.89062H14.8047C16.263 9.89062 16.9922 10.6198 16.9922 12.0781C16.9922 12.2604 16.6536 12.7682 15.9766 13.6016C15.2995 14.4089 14.6354 15.3203 13.9844 16.3359C13.3333 17.3255 13.0078 18.5495 13.0078 20.0078C13.0078 20.3984 13.7109 21.3099 15.1172 22.7422C16.5495 24.1484 17.2656 25.6458 17.2656 27.2344V27.5469C17.2656 28.8229 16.6667 30.0078 15.4688 31.1016C14.2708 32.1953 12.9427 32.7422 11.4844 32.7422H10.4688ZM21.0547 23.2891C21.0547 20.8932 22.1745 18.0807 24.4141 14.8516C26.6536 11.5964 28.776 9.96875 30.7812 9.96875H31.0547C32.4349 9.96875 33.125 10.7109 33.125 12.1953C33.125 12.4036 32.7474 12.9635 31.9922 13.875C31.263 14.7604 30.8203 15.3203 30.6641 15.5547C29.6745 17.0911 29.1797 18.5104 29.1797 19.8125C29.1797 20.4635 29.8958 21.4401 31.3281 22.7422C32.7604 24.0443 33.4766 25.4635 33.4766 27V27.3125L33.4375 27.5859C33.4375 28.862 32.8385 30.0469 31.6406 31.1406C30.4427 32.2344 28.9974 32.7812 27.3047 32.7812L26.9922 32.7422H26.6406C24.7656 32.7422 23.3464 32.1172 22.3828 30.8672C21.4453 29.5911 20.9766 27.9375 20.9766 25.9062V24.2656C21.0286 23.849 21.0547 23.5234 21.0547 23.2891ZM440.703 17.8594V18.2109C440.703 21.3099 439.74 24.3568 437.812 27.3516C436.745 28.9922 435.482 30.3724 434.023 31.4922C432.591 32.612 431.536 33.1719 430.859 33.1719H430.586C429.31 33.1719 428.672 32.6641 428.672 31.6484V30.9453C428.672 30.6589 429.01 30.151 429.688 29.4219C431.693 27.2344 432.695 25.138 432.695 23.1328C432.695 23.0547 432.031 22.2083 430.703 20.5938C429.401 18.9792 428.75 17.3906 428.75 15.8281C428.75 14.2396 429.349 12.9375 430.547 11.9219C431.771 10.9062 433.138 10.3984 434.648 10.3984H435.312L435.625 10.4375C439.01 10.4375 440.703 12.9115 440.703 17.8594ZM450.156 10.4375H451.484C455.026 10.4375 456.797 12.8203 456.797 17.5859V17.8984C456.797 21.1276 455.977 24.0182 454.336 26.5703C452.695 29.1224 450.951 31.0365 449.102 32.3125C448.112 32.9896 447.344 33.3281 446.797 33.3281H446.484C445.104 33.3281 444.414 32.7161 444.414 31.4922V31.0234C444.414 30.763 444.674 30.3464 445.195 29.7734C447.331 27.4297 448.398 25.2292 448.398 23.1719C448.398 22.5729 447.734 21.6745 446.406 20.4766C445.078 19.2786 444.414 17.9766 444.414 16.5703V15.9453C444.414 14.4609 444.961 13.1719 446.055 12.0781C447.148 10.9844 448.516 10.4375 450.156 10.4375Z" fill="url(#paint0_linear_352_539)"/>
<path d="M75.6 81L63.92 59.8H60.64V81H46.96V24.84H69.92C74.3467 24.84 78.1067 25.6133 81.2 27.16C84.3467 28.7067 86.6933 30.84 88.24 33.56C89.7867 36.2267 90.56 39.2133 90.56 42.52C90.56 46.2533 89.4933 49.5867 87.36 52.52C85.28 55.4533 82.1867 57.5333 78.08 58.76L91.04 81H75.6ZM60.64 50.12H69.12C71.6267 50.12 73.4933 49.5067 74.72 48.28C76 47.0533 76.64 45.32 76.64 43.08C76.64 40.9467 76 39.2667 74.72 38.04C73.4933 36.8133 71.6267 36.2 69.12 36.2H60.64V50.12ZM141.227 57.96C141.227 59.24 141.148 60.5733 140.988 61.96H110.028C110.241 64.7333 111.121 66.8667 112.668 68.36C114.268 69.8 116.214 70.52 118.508 70.52C121.921 70.52 124.294 69.08 125.628 66.2H140.188C139.441 69.1333 138.081 71.7733 136.108 74.12C134.188 76.4667 131.761 78.3067 128.828 79.64C125.894 80.9733 122.614 81.64 118.988 81.64C114.614 81.64 110.721 80.7067 107.308 78.84C103.894 76.9733 101.228 74.3067 99.3075 70.84C97.3875 67.3733 96.4275 63.32 96.4275 58.68C96.4275 54.04 97.3608 49.9867 99.2275 46.52C101.148 43.0533 103.814 40.3867 107.228 38.52C110.641 36.6533 114.561 35.72 118.988 35.72C123.308 35.72 127.148 36.6267 130.508 38.44C133.868 40.2533 136.481 42.84 138.348 46.2C140.268 49.56 141.227 53.48 141.227 57.96ZM127.228 54.36C127.228 52.0133 126.428 50.1467 124.828 48.76C123.228 47.3733 121.228 46.68 118.828 46.68C116.534 46.68 114.588 47.3467 112.988 48.68C111.441 50.0133 110.481 51.9067 110.108 54.36H127.228ZM166.604 81.64C162.711 81.64 159.244 80.9733 156.204 79.64C153.164 78.3067 150.764 76.4933 149.004 74.2C147.244 71.8533 146.258 69.24 146.044 66.36H159.564C159.724 67.9067 160.444 69.16 161.724 70.12C163.004 71.08 164.578 71.56 166.444 71.56C168.151 71.56 169.458 71.24 170.364 70.6C171.324 69.9067 171.804 69.0267 171.804 67.96C171.804 66.68 171.138 65.7467 169.804 65.16C168.471 64.52 166.311 63.8267 163.324 63.08C160.124 62.3333 157.458 61.56 155.324 60.76C153.191 59.9067 151.351 58.6 149.804 56.84C148.258 55.0267 147.484 52.6 147.484 49.56C147.484 47 148.178 44.68 149.564 42.6C151.004 40.4667 153.084 38.7867 155.804 37.56C158.578 36.3333 161.858 35.72 165.644 35.72C171.244 35.72 175.644 37.1067 178.844 39.88C182.098 42.6533 183.964 46.3333 184.444 50.92H171.804C171.591 49.3733 170.898 48.1467 169.724 47.24C168.604 46.3333 167.111 45.88 165.244 45.88C163.644 45.88 162.418 46.2 161.564 46.84C160.711 47.4267 160.284 48.2533 160.284 49.32C160.284 50.6 160.951 51.56 162.284 52.2C163.671 52.84 165.804 53.48 168.684 54.12C171.991 54.9733 174.684 55.8267 176.764 56.68C178.844 57.48 180.658 58.8133 182.204 60.68C183.804 62.4933 184.631 64.9467 184.684 68.04C184.684 70.6533 183.938 73 182.444 75.08C181.004 77.1067 178.898 78.7067 176.124 79.88C173.404 81.0533 170.231 81.64 166.604 81.64ZM235.134 57.96C235.134 59.24 235.054 60.5733 234.894 61.96H203.934C204.147 64.7333 205.027 66.8667 206.574 68.36C208.174 69.8 210.12 70.52 212.414 70.52C215.827 70.52 218.2 69.08 219.534 66.2H234.094C233.347 69.1333 231.987 71.7733 230.014 74.12C228.094 76.4667 225.667 78.3067 222.734 79.64C219.8 80.9733 216.52 81.64 212.894 81.64C208.52 81.64 204.627 80.7067 201.214 78.84C197.8 76.9733 195.134 74.3067 193.214 70.84C191.294 67.3733 190.334 63.32 190.334 58.68C190.334 54.04 191.267 49.9867 193.134 46.52C195.054 43.0533 197.72 40.3867 201.134 38.52C204.547 36.6533 208.467 35.72 212.894 35.72C217.214 35.72 221.054 36.6267 224.414 38.44C227.774 40.2533 230.387 42.84 232.254 46.2C234.174 49.56 235.134 53.48 235.134 57.96ZM221.134 54.36C221.134 52.0133 220.334 50.1467 218.734 48.76C217.134 47.3733 215.134 46.68 212.734 46.68C210.44 46.68 208.494 47.3467 206.894 48.68C205.347 50.0133 204.387 51.9067 204.014 54.36H221.134ZM239.631 58.6C239.631 54.0133 240.484 49.9867 242.191 46.52C243.951 43.0533 246.324 40.3867 249.311 38.52C252.297 36.6533 255.631 35.72 259.311 35.72C262.457 35.72 265.204 36.36 267.551 37.64C269.951 38.92 271.791 40.6 273.071 42.68V36.36H286.751V81H273.071V74.68C271.737 76.76 269.871 78.44 267.471 79.72C265.124 81 262.377 81.64 259.231 81.64C255.604 81.64 252.297 80.7067 249.311 78.84C246.324 76.92 243.951 74.2267 242.191 70.76C240.484 67.24 239.631 63.1867 239.631 58.6ZM273.071 58.68C273.071 55.2667 272.111 52.5733 270.191 50.6C268.324 48.6267 266.031 47.64 263.311 47.64C260.591 47.64 258.271 48.6267 256.351 50.6C254.484 52.52 253.551 55.1867 253.551 58.6C253.551 62.0133 254.484 64.7333 256.351 66.76C258.271 68.7333 260.591 69.72 263.311 69.72C266.031 69.72 268.324 68.7333 270.191 66.76C272.111 64.7867 273.071 62.0933 273.071 58.68ZM310.328 43.8C311.928 41.3467 313.928 39.4267 316.328 38.04C318.728 36.6 321.394 35.88 324.328 35.88V50.36H320.568C317.154 50.36 314.594 51.1067 312.888 52.6C311.181 54.04 310.328 56.6 310.328 60.28V81H296.648V36.36H310.328V43.8ZM328.146 58.68C328.146 54.04 329.08 49.9867 330.946 46.52C332.866 43.0533 335.506 40.3867 338.866 38.52C342.28 36.6533 346.173 35.72 350.546 35.72C356.146 35.72 360.813 37.1867 364.546 40.12C368.333 43.0533 370.813 47.1867 371.986 52.52H357.426C356.2 49.1067 353.826 47.4 350.306 47.4C347.8 47.4 345.8 48.3867 344.306 50.36C342.813 52.28 342.066 55.0533 342.066 58.68C342.066 62.3067 342.813 65.1067 344.306 67.08C345.8 69 347.8 69.96 350.306 69.96C353.826 69.96 356.2 68.2533 357.426 64.84H371.986C370.813 70.0667 368.333 74.1733 364.546 77.16C360.76 80.1467 356.093 81.64 350.546 81.64C346.173 81.64 342.28 80.7067 338.866 78.84C335.506 76.9733 332.866 74.3067 330.946 70.84C329.08 67.3733 328.146 63.32 328.146 58.68ZM406.744 35.88C411.864 35.88 415.97 37.5867 419.064 41C422.157 44.36 423.704 49 423.704 54.92V81H410.104V56.76C410.104 53.7733 409.33 51.4533 407.784 49.8C406.237 48.1467 404.157 47.32 401.544 47.32C398.93 47.32 396.85 48.1467 395.304 49.8C393.757 51.4533 392.984 53.7733 392.984 56.76V81H379.304V21.8H392.984V42.36C394.37 40.3867 396.264 38.8133 398.664 37.64C401.064 36.4667 403.757 35.88 406.744 35.88Z" fill="white"/>
<path d="M441 117C231 94.5 21 117 21 117" stroke="url(#paint1_linear_352_539)" stroke-width="28" stroke-linecap="round"/>
<defs>
<linearGradient id="paint0_linear_352_539" x1="0" y1="40" x2="462" y2="40" gradientUnits="userSpaceOnUse">
<stop stop-color="#7567FF"/>
<stop offset="1" stop-color="#35A3FF"/>
</linearGradient>
<linearGradient id="paint1_linear_352_539" x1="13.3702" y1="123.359" x2="438.82" y2="123.359" gradientUnits="userSpaceOnUse">
<stop stop-color="#7864FF"/>
<stop offset="1" stop-color="#32A6FF"/>
</linearGradient>
</defs>
</svg>
